# xmcd
#
# Track frame offsets:
#	150
#	4344
#	11091
#	20151
#	31451
#	51830
#	60265
#	86163
#	106890
#	127063
#	136574
#	155149
#	171668
#	191248
# Disc length: 2647 seconds
# Revision: 1
# Processed by: cddbd v1.5.2PL0 Copyright (c) Steve Scherf et al.
#
# Submitted via: libkcddb 0.31
#
DISCID=c40a550e
DTITLE=CYRZ - Paris 14-03-07
DYEAR=2007
DGENRE=Unknown
TTITLE0=intro
TTITLE1=Avant tout I
TTITLE2=Content
TTITLE3=Chanson d'amour obsolète
TTITLE4=Le fer forgé
TTITLE5=Avant tout II
TTITLE6=Au peigne fin
TTITLE7=Gutenberg
TTITLE8=Le ciel des amants
TTITLE9=Avant tout III
TTITLE10=Mélimélopée
TTITLE11=Un air d'autoroute
TTITLE12=Toboggan
TTITLE13=Avant tout IV
EXTD=
EXTT0=
EXTT1=
EXTT2=
EXTT3=
EXTT4=
EXTT5=
EXTT6=
EXTT7=
EXTT8=
EXTT9=
EXTT10=
EXTT11=
EXTT12=
EXTT13=
PLAYORDER=
